
<svg xmlns="http://www.w3.org/2000/svg" viewBox="0 0 1080 1080">
  <g>
    <path class="a" d="M151.52,610.34C204.18,609.26,230,632.9,230,685c0,65.56-48.89,116.06-123.58,116.06C46.75,801.09,0,770.46,0,730.7c0-25.79,24.72-47.29,46.21-53.2v-1.07C23.64,670,11.28,649.56,11.28,622.7c0-44.6,32.78-59.1,53.73-61.79v-1.07c-28.48-12.89-44.6-36-44.6-65.55,0-48.89,48.36-78.45,93.49-78.45,30.09,0,51.58,8.06,67.16,19.35,10.21-11.83,23.64-23.65,41.37-23.65,16.12,0,36.54,9.67,36.54,28.48,0,14.51-9.67,27.4-26.87,27.4-16.12,0-24.72-12.36-24.72-24.72,0-10.74,3.22-17.73,14.51-23.64V418c-21,2.69-25.79,14.51-35.46,24.18,15,12.89,23.11,37.07,23.11,54.27,0,51-49.43,77.37-95.64,77.37a67.93,67.93,0,0,1-22-3.22C86,569,80.06,567.35,74.15,567.35c-20.42,0-43.52,14.51-43.52,27.94,0,14.51,18.27,15,31.7,15ZM54.81,678c-14.51,15.58-22.57,31.16-22.57,54.8,1.07,25.79,27.4,58.57,75.76,58.57,54.27,0,102.63-36.53,102.63-75.76,0-32.78-17.73-37.61-71.46-37.61ZM148.3,494.28c-.54-61.79-8.6-68.78-33.85-68.78-27.94,0-32.78,23.64-32.78,67.16,0,64.48,11.28,71.46,32.78,71.46C133.79,564.13,147.76,560.37,148.3,494.28Z"/>
    <path class="a" d="M600.18,432v-9.67c54.27,0,93-58.57,93-115.52h9.67V422.28h49.43V432H702.8V614.63c0,17.74,7,27.94,21,27.94,13.43,0,22-12.9,28.48-22.57l7,3.76c-16.66,27.94-38.69,41.38-71.46,41.38-15,0-59.1-10.21-59.1-61.25V432Z"/>
    <path class="a" d="M1080,801.09H927.94v-9.67h40.83V625.92H967.7c-12.89,24.18-32.24,39.23-67.7,39.23-53.73,0-113.37-45.67-113.37-120.36,0-68.78,42.45-129,114.45-129,28.48,0,52.12,12.9,66.63,41.38h1.07V405.62c9.67,16.12,39.23,16.66,77.37,16.66H1080V432h-37.08V791.41H1080ZM867.22,577c0,52.65,16.12,75.22,45.67,75.22,35.46,0,55.88-33.31,55.88-64.48v-94c0-30.09-21.49-65-58-65-28.48,0-43.52,23.64-43.52,61.25Z"/>
    <g>
      <path class="a" d="M266,649H303V290.1H266v-9.67h33.85c38.15,0,67.7,0,77.37-16.66v194h1.07c15-28.48,37.61-41.91,69.32-41.91,50.51,0,116.6,38.69,116.6,125.73,0,45.67-38.15,123.59-116.6,123.59-30.09,0-60.18-16.12-72-47.29h-1.08v47.29c-3.76-2.69-11.82-4.3-22.57-5.38s-24.71-1.07-40.84-1.07H266ZM377.2,579.17c0,48.36,31.16,73.07,58,73.07,30.09,0,48.36-17.19,48.36-72.54V512c0-69.85-21-86.51-46.75-86.51-36.54,0-59.64,40.84-59.64,70.93Z"/>
      <g>
        <path class="a" d="M288.73,773.23h3.87V793.9a24,24,0,0,1-8.8,5.29A32.69,32.69,0,0,1,272.87,801a30.15,30.15,0,0,1-14.79-3.63,26.65,26.65,0,0,1-10.34-10,29.39,29.39,0,0,1,0-28.72,26.68,26.68,0,0,1,10.34-10A30.31,30.31,0,0,1,272.95,745a31.22,31.22,0,0,1,11.16,1.93,23.84,23.84,0,0,1,8.72,5.64l-2.52,2.68a20.89,20.89,0,0,0-7.77-5,28.06,28.06,0,0,0-9.51-1.54,26.1,26.1,0,0,0-12.82,3.16,23,23,0,0,0-9,8.72A24.26,24.26,0,0,0,248,773a23.86,23.86,0,0,0,3.27,12.35,23.62,23.62,0,0,0,9,8.76,25.6,25.6,0,0,0,12.78,3.2q9.47,0,15.7-5Z"/>
        <path class="a" d="M334.65,763q4.1,3.91,4.1,11.48v26.12H335v-7.34a13.71,13.71,0,0,1-5.76,5.64,19.06,19.06,0,0,1-9.08,2q-6.86,0-10.85-3.23a11.19,11.19,0,0,1-.31-16.85q3.67-3.19,11.72-3.19h14.12v-3.32q0-5.76-3.12-8.76t-9.11-3a21.91,21.91,0,0,0-7.85,1.42,19.63,19.63,0,0,0-6.35,3.79l-2-2.84a22,22,0,0,1,7.42-4.3,26.94,26.94,0,0,1,9.07-1.54Q330.54,759.1,334.65,763Zm-5.25,32.31a14.42,14.42,0,0,0,5.41-6.86v-7.73h-14q-6.08,0-8.8,2.21a7.39,7.39,0,0,0-2.72,6.07,7.61,7.61,0,0,0,3,6.35q3,2.33,8.44,2.33A15.48,15.48,0,0,0,329.4,795.32Z"/>
        <path class="a" d="M364.71,761.51a18.75,18.75,0,0,1,9.78-2.41V763l-.95-.08q-6.87,0-10.73,4.3t-3.87,12v21.46H355V759.42h3.79v9A14.25,14.25,0,0,1,364.71,761.51Z"/>
        <path class="a" d="M411,763q4.1,3.91,4.1,11.48v26.12h-3.79v-7.34a13.71,13.71,0,0,1-5.76,5.64,19.06,19.06,0,0,1-9.08,2q-6.86,0-10.85-3.23a11.19,11.19,0,0,1-.31-16.85q3.67-3.19,11.72-3.19h14.12v-3.32q0-5.76-3.12-8.76t-9.11-3a21.91,21.91,0,0,0-7.85,1.42,19.63,19.63,0,0,0-6.35,3.79l-2-2.84a22,22,0,0,1,7.42-4.3,26.94,26.94,0,0,1,9.07-1.54Q406.92,759.1,411,763Zm-5.25,32.31a14.42,14.42,0,0,0,5.41-6.86v-7.73h-14q-6.08,0-8.8,2.21a7.39,7.39,0,0,0-2.72,6.07,7.61,7.61,0,0,0,3,6.35q3,2.33,8.44,2.33A15.48,15.48,0,0,0,405.78,795.32Z"/>
        <path class="a" d="M468.55,759.42v36.77q0,10.25-5,15.15t-15,4.89a32.73,32.73,0,0,1-10.73-1.74,20.84,20.84,0,0,1-8.13-4.81l2.13-3a21.77,21.77,0,0,0,7.42,4.42,26.85,26.85,0,0,0,9.23,1.58q8.21,0,12.15-3.91t3.94-12.11v-6.95a17.49,17.49,0,0,1-7,6.95,20.79,20.79,0,0,1-10.1,2.45A21.41,21.41,0,0,1,437,796.55a18.85,18.85,0,0,1-7.38-7.14,21.25,21.25,0,0,1,0-20.67,18.61,18.61,0,0,1,7.38-7.1,21.71,21.71,0,0,1,10.45-2.53,20.87,20.87,0,0,1,10.26,2.53,17.25,17.25,0,0,1,7,7.1v-9.31Zm-12.07,34a15.16,15.16,0,0,0,6-5.84,16.77,16.77,0,0,0,2.17-8.56,16.55,16.55,0,0,0-2.17-8.52,15.26,15.26,0,0,0-6-5.8,18,18,0,0,0-8.68-2.09,17.73,17.73,0,0,0-8.64,2.09,15.31,15.31,0,0,0-6,5.8,16.55,16.55,0,0,0-2.17,8.52,16.77,16.77,0,0,0,2.17,8.56,15.21,15.21,0,0,0,6,5.84,17.73,17.73,0,0,0,8.64,2.09A18,18,0,0,0,456.48,793.47Z"/>
        <path class="a" d="M520.07,781H484.64a17.21,17.21,0,0,0,2.45,8.56,15.64,15.64,0,0,0,6.19,5.8,18.6,18.6,0,0,0,8.8,2.05,18.85,18.85,0,0,0,7.46-1.46,14.53,14.53,0,0,0,5.72-4.3l2.29,2.6a17.57,17.57,0,0,1-6.75,5,23.5,23.5,0,0,1-19.77-.94,19.44,19.44,0,0,1-7.54-7.42A21.29,21.29,0,0,1,480.78,780a22.39,22.39,0,0,1,2.56-10.77,18.93,18.93,0,0,1,7.06-7.46,20.38,20.38,0,0,1,20.16,0,18.76,18.76,0,0,1,7,7.37,22.2,22.2,0,0,1,2.56,10.73Zm-27.38-16.45a14.75,14.75,0,0,0-5.56,5.45,17.72,17.72,0,0,0-2.41,7.93h31.56a16.51,16.51,0,0,0-2.37-7.89,15.33,15.33,0,0,0-13.41-7.42A15.79,15.79,0,0,0,492.69,764.51Z"/>
        <path class="a" d="M595.78,776.78A13.48,13.48,0,0,1,598.9,786q0,7-5.13,10.81t-15.23,3.79H553.92V745.38h23q9,0,14,3.67a12.19,12.19,0,0,1,5,10.46,12.7,12.7,0,0,1-2.49,8,13.76,13.76,0,0,1-6.75,4.66Q592.66,773.23,595.78,776.78Zm-37.83-27.93v22H576.8q7.26,0,11.16-2.8t3.9-8.25a9.42,9.42,0,0,0-3.9-8.17q-3.91-2.8-11.16-2.8Zm32.79,45.49q4.14-2.8,4.14-8.64t-4.14-8.6q-4.14-2.76-12.19-2.76h-20.6v22.8h20.6Q586.58,797.14,590.73,794.34Z"/>
        <path class="a" d="M617.55,798.24a19.32,19.32,0,0,1-7.38-7.46,23,23,0,0,1,0-21.54,19.32,19.32,0,0,1,7.38-7.46,22,22,0,0,1,21.07,0,19.34,19.34,0,0,1,7.38,7.46,23,23,0,0,1,0,21.54,19.34,19.34,0,0,1-7.38,7.46,22,22,0,0,1-21.07,0Zm19-3.08a15.88,15.88,0,0,0,5.92-6.16,19.72,19.72,0,0,0,0-18,15.9,15.9,0,0,0-5.92-6.15,17.39,17.39,0,0,0-17,0,15.86,15.86,0,0,0-5.92,6.15,19.72,19.72,0,0,0,0,18,15.84,15.84,0,0,0,5.92,6.16,17.39,17.39,0,0,0,17,0Z"/>
        <path class="a" d="M697,759.42v41.19h-3.79v-8.84a15.3,15.3,0,0,1-6.07,6.75,18.11,18.11,0,0,1-9.47,2.4q-8,0-12.62-4.5t-4.58-12.94V759.42h3.94v23.75q0,6.95,3.55,10.58t10,3.63q6.94,0,11-4.34T693,781.36V759.42Z"/>
        <path class="a" d="M734.14,798a9.93,9.93,0,0,1-3.75,2.17,14.7,14.7,0,0,1-4.69.75q-5.37,0-8.29-3t-2.92-8.25v-26.9h-7.58v-3.39h7.58v-9h3.94v9h13.1v3.39h-13.1v26.51c0,2.68.64,4.72,1.93,6.12a7.41,7.41,0,0,0,5.72,2.09,9.16,9.16,0,0,0,6.39-2.29Z"/>
        <path class="a" d="M744.78,748.5a3,3,0,0,1-.94-2.25,3.23,3.23,0,0,1,3.23-3.23,3.21,3.21,0,0,1,2.29.91,3,3,0,0,1,.94,2.25,3.23,3.23,0,0,1-3.23,3.23A3.18,3.18,0,0,1,744.78,748.5Zm.31,10.93H749v41.19H745.1Z"/>
        <path class="a" d="M802.3,759.42v56.49h-3.94V791.06a18.6,18.6,0,0,1-6.91,7.26,19,19,0,0,1-9.9,2.6,20.71,20.71,0,0,1-10.42-2.64,18.85,18.85,0,0,1-7.3-7.42A22,22,0,0,1,761.19,780a21.81,21.81,0,0,1,2.64-10.81,19.23,19.23,0,0,1,7.3-7.42,20.49,20.49,0,0,1,10.42-2.69,19.37,19.37,0,0,1,10,2.6,17.73,17.73,0,0,1,6.86,7.42v-9.7Zm-12,35.74a15.84,15.84,0,0,0,5.92-6.16,19.68,19.68,0,0,0,0-18,15.86,15.86,0,0,0-5.92-6.15,17.39,17.39,0,0,0-17,0,15.87,15.87,0,0,0-5.92,6.15,19.72,19.72,0,0,0,0,18,15.85,15.85,0,0,0,5.92,6.16,17.39,17.39,0,0,0,17,0Z"/>
        <path class="a" d="M855,759.42v41.19h-3.79v-8.84a15.34,15.34,0,0,1-6.08,6.75,18.11,18.11,0,0,1-9.47,2.4q-8,0-12.63-4.5t-4.57-12.94V759.42h3.94v23.75q0,6.95,3.55,10.58t10,3.63q6.95,0,11-4.34t4.06-11.68V759.42Z"/>
        <path class="a" d="M906.54,781H871.11a17.21,17.21,0,0,0,2.45,8.56,15.63,15.63,0,0,0,6.2,5.8,18.59,18.59,0,0,0,8.8,2.05,18.82,18.82,0,0,0,7.45-1.46,14.53,14.53,0,0,0,5.72-4.3l2.29,2.6a17.62,17.62,0,0,1-6.75,5,23.5,23.5,0,0,1-19.77-.94,19.42,19.42,0,0,1-7.54-7.42A21.32,21.32,0,0,1,867.24,780a22.36,22.36,0,0,1,2.56-10.77,18.93,18.93,0,0,1,7.06-7.46,20.38,20.38,0,0,1,20.16,0,18.78,18.78,0,0,1,7,7.37,22.2,22.2,0,0,1,2.57,10.73Zm-27.38-16.45a14.75,14.75,0,0,0-5.56,5.45,17.69,17.69,0,0,0-2.41,7.93h31.56a16.51,16.51,0,0,0-2.37-7.89A15.33,15.33,0,0,0,887,762.58,15.79,15.79,0,0,0,879.16,764.51Z"/>
      </g>
    </g>
  </g>
</svg>
