<svg xmlns="http://www.w3.org/2000/svg" viewBox="0 0 706 361.15">
  <g>
    <path class="a" d="M99.05,226.55c34.42-.7,51.28,14.75,51.28,48.82,0,42.85-32,75.87-80.79,75.87-39,0-69.55-20-69.55-46,0-16.86,16.16-30.91,30.21-34.78v-.7c-14.75-4.22-22.83-17.56-22.83-35.12,0-29.15,21.43-38.64,35.12-40.39v-.7C23.88,185.11,13.35,170,13.35,150.69c0-32,31.61-51.28,61.12-51.28,19.67,0,33.72,5.27,43.91,12.65,6.67-7.73,15.45-15.46,27-15.46,10.54,0,23.88,6.32,23.88,18.62,0,9.49-6.32,17.91-17.56,17.91-10.54,0-16.16-8.08-16.16-16.16,0-7,2.11-11.59,9.48-15.45v-.7c-13.7,1.76-16.86,9.48-23.18,15.81C131.72,125,137,140.85,137,152.09c0,33.37-32.31,50.58-62.52,50.58a44.41,44.41,0,0,1-14.4-2.11c-3.86-1.05-7.73-2.11-11.59-2.11-13.35,0-28.45,9.48-28.45,18.26,0,9.49,11.94,9.84,20.72,9.84ZM35.83,270.81C26.34,281,21.07,291.18,21.07,306.64c.7,16.86,17.91,38.29,49.52,38.29,35.48,0,67.09-23.88,67.09-49.52,0-21.43-11.59-24.59-46.72-24.59ZM96.94,150.69c-.35-40.39-5.62-45-22.13-45-18.27,0-21.43,15.45-21.43,43.91,0,42.15,7.38,46.72,21.43,46.72C87.46,196.35,96.59,193.89,96.94,150.69Z"/>
    <path class="a" d="M392.34,109.94v-6.32c35.48,0,60.76-38.29,60.76-75.52h6.32v75.52h32.31v6.32H459.42V229.36c0,11.59,4.57,18.27,13.7,18.27,8.78,0,14.4-8.43,18.62-14.75l4.57,2.46c-10.89,18.27-25.29,27-46.72,27-9.83,0-38.64-6.67-38.64-40V109.94Z"/>
    <path class="a" d="M706,351.25H606.6v-6.32h26.69V236.74h-.7c-8.43,15.81-21.08,25.64-44.26,25.64-35.12,0-74.11-29.86-74.11-78.68,0-45,27.75-84.3,74.82-84.3,18.62,0,34.07,8.43,43.55,27h.7V92.73c6.32,10.54,25.64,10.89,50.58,10.89H706v6.32H681.76v235H706ZM566.91,204.78c0,34.42,10.54,49.17,29.86,49.17,23.18,0,36.53-21.78,36.53-42.15V150.33c0-19.67-14.05-42.5-37.93-42.5-18.62,0-28.45,15.45-28.45,40Z"/>
    <g>
      <path class="a" d="M173.87,251.84H198.1V17.21H173.87V10.89H196c24.94,0,44.26,0,50.58-10.89V126.8h.7c9.84-18.62,24.59-27.4,45.31-27.4,33,0,76.22,25.29,76.22,82.19,0,29.86-24.94,80.79-76.22,80.79-19.67,0-39.34-10.54-47.07-30.91h-.7v30.91c-2.46-1.76-7.73-2.81-14.75-3.51s-16.16-.7-26.69-.7h-29.5Zm72.71-45.66c0,31.61,20.37,47.77,37.93,47.77,19.67,0,31.61-11.24,31.61-47.42V162.28c0-45.66-13.7-56.55-30.56-56.55-23.88,0-39,26.7-39,46.37Z"/>
      <g>
        <path class="a" d="M188.74,333h2.53v13.51a15.72,15.72,0,0,1-5.75,3.46,21.37,21.37,0,0,1-7.14,1.19,19.71,19.71,0,0,1-9.67-2.37,17.42,17.42,0,0,1-6.76-6.55,19.21,19.21,0,0,1,0-18.78,17.44,17.44,0,0,1,6.76-6.55,19.81,19.81,0,0,1,9.72-2.37,20.41,20.41,0,0,1,7.3,1.26,15.58,15.58,0,0,1,5.7,3.69l-1.65,1.75a13.66,13.66,0,0,0-5.08-3.27,18.34,18.34,0,0,0-6.21-1,17.06,17.06,0,0,0-8.38,2.06,15,15,0,0,0-5.85,5.7,15.86,15.86,0,0,0-2.11,8.13,15.6,15.6,0,0,0,2.14,8.07,15.44,15.44,0,0,0,5.85,5.73,16.74,16.74,0,0,0,8.36,2.09,15.79,15.79,0,0,0,10.26-3.3Z"/>
        <path class="a" d="M218.76,326.36q2.68,2.55,2.68,7.51v17.07H219v-4.8a9,9,0,0,1-3.77,3.69,12.46,12.46,0,0,1-5.93,1.32,10.94,10.94,0,0,1-7.09-2.11,7.32,7.32,0,0,1-.21-11q2.4-2.09,7.66-2.09h9.23v-2.17a7.58,7.58,0,0,0-2-5.73,8.27,8.27,0,0,0-6-2,14.33,14.33,0,0,0-5.13.93,12.83,12.83,0,0,0-4.15,2.48l-1.29-1.86a14.38,14.38,0,0,1,4.85-2.81,17.61,17.61,0,0,1,5.93-1Q216.08,323.8,218.76,326.36Zm-3.43,21.12a9.42,9.42,0,0,0,3.53-4.49v-5.05h-9.18q-4,0-5.75,1.44a4.83,4.83,0,0,0-1.78,4,5,5,0,0,0,2,4.15,8.82,8.82,0,0,0,5.52,1.52A10.12,10.12,0,0,0,215.33,347.48Z"/>
        <path class="a" d="M238.41,325.38a12.26,12.26,0,0,1,6.4-1.57v2.53l-.62-.05a9,9,0,0,0-7,2.81q-2.53,2.81-2.53,7.81v14h-2.58V324h2.48v5.88A9.31,9.31,0,0,1,238.41,325.38Z"/>
        <path class="a" d="M268.69,326.36q2.68,2.55,2.68,7.51v17.07H268.9v-4.8a9,9,0,0,1-3.77,3.69,12.46,12.46,0,0,1-5.93,1.32,10.94,10.94,0,0,1-7.09-2.11,7.32,7.32,0,0,1-.21-11q2.4-2.09,7.66-2.09h9.23v-2.17a7.58,7.58,0,0,0-2-5.73,8.27,8.27,0,0,0-6-2,14.33,14.33,0,0,0-5.13.93,12.83,12.83,0,0,0-4.15,2.48l-1.29-1.86a14.38,14.38,0,0,1,4.85-2.81,17.61,17.61,0,0,1,5.93-1Q266,323.8,268.69,326.36Zm-3.43,21.12A9.42,9.42,0,0,0,268.8,343v-5.05h-9.18q-4,0-5.75,1.44a4.83,4.83,0,0,0-1.78,4,5,5,0,0,0,2,4.15,8.82,8.82,0,0,0,5.52,1.52A10.12,10.12,0,0,0,265.26,347.48Z"/>
        <path class="a" d="M306.29,324v24q0,6.7-3.25,9.9t-9.8,3.2a21.4,21.4,0,0,1-7-1.14,13.62,13.62,0,0,1-5.31-3.15l1.39-2a14.23,14.23,0,0,0,4.85,2.89,17.55,17.55,0,0,0,6,1q5.37,0,7.94-2.55t2.58-7.92v-4.54a11.43,11.43,0,0,1-4.59,4.54,13.59,13.59,0,0,1-6.6,1.6,14,14,0,0,1-6.83-1.68,12.32,12.32,0,0,1-4.82-4.67,13.89,13.89,0,0,1,0-13.51,12.17,12.17,0,0,1,4.82-4.64,14.19,14.19,0,0,1,6.83-1.65,13.64,13.64,0,0,1,6.71,1.65,11.28,11.28,0,0,1,4.59,4.64V324Zm-7.89,22.26a9.91,9.91,0,0,0,3.94-3.82,11,11,0,0,0,1.42-5.6,10.82,10.82,0,0,0-1.42-5.57,10,10,0,0,0-3.94-3.79,11.74,11.74,0,0,0-5.67-1.37,11.59,11.59,0,0,0-5.65,1.37,10,10,0,0,0-3.92,3.79,10.82,10.82,0,0,0-1.42,5.57,11,11,0,0,0,1.42,5.6,9.94,9.94,0,0,0,3.92,3.82,11.59,11.59,0,0,0,5.65,1.37A11.74,11.74,0,0,0,298.4,346.27Z"/>
        <path class="a" d="M340,338.09H316.81a11.25,11.25,0,0,0,1.6,5.6,10.23,10.23,0,0,0,4,3.79,12.16,12.16,0,0,0,5.75,1.34,12.32,12.32,0,0,0,4.87-1,9.5,9.5,0,0,0,3.74-2.81l1.5,1.7a11.49,11.49,0,0,1-4.41,3.25,15.36,15.36,0,0,1-12.92-.62,12.71,12.71,0,0,1-4.93-4.85,13.92,13.92,0,0,1-1.78-7.07,14.64,14.64,0,0,1,1.68-7,12.37,12.37,0,0,1,4.62-4.87,13.32,13.32,0,0,1,13.18,0,12.27,12.27,0,0,1,4.59,4.82,14.51,14.51,0,0,1,1.68,7Zm-17.9-10.75a9.65,9.65,0,0,0-3.64,3.56,11.58,11.58,0,0,0-1.57,5.18H337.5a10.79,10.79,0,0,0-1.55-5.16,10,10,0,0,0-8.77-4.85A10.32,10.32,0,0,0,322.07,327.34Z"/>
        <path class="a" d="M389.46,335.36a8.81,8.81,0,0,1,2,6,8.25,8.25,0,0,1-3.35,7.07q-3.35,2.47-10,2.48H362.1V314.83h15.06q5.88,0,9.16,2.4a8,8,0,0,1,3.28,6.84,8.3,8.3,0,0,1-1.62,5.21,9,9,0,0,1-4.41,3A10,10,0,0,1,389.46,335.36ZM364.73,317.1v14.39h12.33q4.75,0,7.3-1.83a6.91,6.91,0,0,0,0-10.73q-2.55-1.83-7.3-1.83Zm21.43,29.74a7.22,7.22,0,0,0,0-11.27q-2.71-1.81-8-1.81H364.73v14.91h13.46Q383.45,348.67,386.16,346.84Z"/>
        <path class="a" d="M403.7,349.39a12.63,12.63,0,0,1-4.82-4.87,15,15,0,0,1,0-14.08,12.63,12.63,0,0,1,4.82-4.87,14.38,14.38,0,0,1,13.77,0,12.64,12.64,0,0,1,4.82,4.87,15,15,0,0,1,0,14.08,12.64,12.64,0,0,1-4.82,4.87,14.4,14.4,0,0,1-13.77,0Zm12.43-2a10.38,10.38,0,0,0,3.87-4,12.89,12.89,0,0,0,0-11.76,10.39,10.39,0,0,0-3.87-4,11.37,11.37,0,0,0-11.09,0,10.37,10.37,0,0,0-3.87,4,12.89,12.89,0,0,0,0,11.76,10.36,10.36,0,0,0,3.87,4,11.37,11.37,0,0,0,11.09,0Z"/>
        <path class="a" d="M455.61,324v26.92h-2.48v-5.78a10,10,0,0,1-4,4.41,11.84,11.84,0,0,1-6.19,1.57q-5.26,0-8.25-2.94t-3-8.46V324h2.58v15.52q0,4.54,2.32,6.91a8.75,8.75,0,0,0,6.55,2.37,9.38,9.38,0,0,0,7.2-2.84,10.71,10.71,0,0,0,2.66-7.63V324Z"/>
        <path class="a" d="M479.91,349.23a6.49,6.49,0,0,1-2.45,1.42,9.61,9.61,0,0,1-3.07.49,6.68,6.68,0,0,1-7.32-7.32V326.23h-5V324h5v-5.88h2.58V324h8.56v2.22h-8.56v17.33a5.68,5.68,0,0,0,1.26,4,4.85,4.85,0,0,0,3.74,1.37,6,6,0,0,0,4.18-1.5Z"/>
        <path class="a" d="M486.87,316.87a2,2,0,0,1-.62-1.47,2.11,2.11,0,0,1,2.11-2.11,2.1,2.1,0,0,1,1.5.59,2,2,0,0,1,.62,1.47,2.11,2.11,0,0,1-2.11,2.11A2.08,2.08,0,0,1,486.87,316.87Zm.21,7.14h2.58v26.92h-2.58Z"/>
        <path class="a" d="M524.47,324v36.93h-2.58V344.7a12.16,12.16,0,0,1-4.52,4.74,12.42,12.42,0,0,1-6.47,1.7,13.54,13.54,0,0,1-6.81-1.73,12.32,12.32,0,0,1-4.77-4.85,14.4,14.4,0,0,1-1.73-7.09,14.26,14.26,0,0,1,1.73-7.07,12.57,12.57,0,0,1,4.77-4.85,13.4,13.4,0,0,1,6.81-1.76,12.66,12.66,0,0,1,6.55,1.7,11.59,11.59,0,0,1,4.49,4.85V324Zm-7.86,23.37a10.35,10.35,0,0,0,3.87-4,12.87,12.87,0,0,0,0-11.76,10.37,10.37,0,0,0-3.87-4,11.37,11.37,0,0,0-11.09,0,10.37,10.37,0,0,0-3.87,4,12.89,12.89,0,0,0,0,11.76,10.36,10.36,0,0,0,3.87,4,11.37,11.37,0,0,0,11.09,0Z"/>
        <path class="a" d="M558.93,324v26.92h-2.48v-5.78a10,10,0,0,1-4,4.41,11.84,11.84,0,0,1-6.19,1.57q-5.26,0-8.25-2.94t-3-8.46V324h2.58v15.52q0,4.54,2.32,6.91a8.75,8.75,0,0,0,6.55,2.37,9.37,9.37,0,0,0,7.19-2.84,10.71,10.71,0,0,0,2.66-7.63V324Z"/>
        <path class="a" d="M592.61,338.09H569.45a11.25,11.25,0,0,0,1.6,5.6,10.22,10.22,0,0,0,4.05,3.79,12.15,12.15,0,0,0,5.75,1.34,12.3,12.3,0,0,0,4.87-1,9.5,9.5,0,0,0,3.74-2.81l1.5,1.7a11.52,11.52,0,0,1-4.41,3.25,15.36,15.36,0,0,1-12.92-.62,12.7,12.7,0,0,1-4.93-4.85,13.93,13.93,0,0,1-1.78-7.07,14.62,14.62,0,0,1,1.67-7,12.38,12.38,0,0,1,4.62-4.87,13.32,13.32,0,0,1,13.18,0,12.27,12.27,0,0,1,4.59,4.82,14.51,14.51,0,0,1,1.68,7Zm-17.9-10.75a9.65,9.65,0,0,0-3.64,3.56,11.57,11.57,0,0,0-1.57,5.18h20.63a10.79,10.79,0,0,0-1.55-5.16,10,10,0,0,0-8.77-4.85A10.32,10.32,0,0,0,574.71,327.34Z"/>
      </g>
    </g>
  </g>
</svg>