<svg xmlns="http://www.w3.org/2000/svg" viewBox="0 0 793 793">
  <g>
    <path class="a" d="M355,465.2v-.3c0-6.9-5.4-10.8-15.15-10.8h-22.8v22.2h21.3C348.56,476.3,355,473,355,465.2Z"/>
    <polygon class="a" points="483.11 280.85 469.16 314.9 497.06 314.9 483.11 280.85"/>
    <path class="a" d="M551.06,633.35c-18.6,0-31.5,14.7-31.5,32.7v.3c0,18,13.2,33,31.8,33s31.5-14.7,31.5-32.7v-.3C582.86,648.35,569.66,633.35,551.06,633.35Z"/>
    <path class="a" d="M343.76,495.5h-26.7v23.1h27.45c10.2,0,16.35-3.6,16.35-11.4v-.3C360.86,499.85,355.61,495.5,343.76,495.5Z"/>
    <path class="a" d="M0,0V793H793V0ZM676.76,136.4C655.61,131,642,125.15,642,104.3V104c0-19,15.3-31.65,36.75-31.65,15.3,0,28.35,4.8,39,13.35l-12,17.4c-9.3-6.45-18.45-10.35-27.3-10.35s-13.5,4-13.5,9.15v.3c0,6.9,4.5,9.15,22.65,13.8,21.3,5.55,33.3,13.2,33.3,31.5v.3c0,20.85-15.9,32.55-38.55,32.55a66.82,66.82,0,0,1-44.55-16.8l13.65-16.35c9.45,7.8,19.35,12.75,31.35,12.75,9.45,0,15.15-3.75,15.15-9.9v-.3C697.91,143.9,694.31,140.9,676.76,136.4Zm-46,201.45v21H555.26v-105h23.1v84Zm-21.9-240h-9.3v-24h24.3V94.1c0,19.8-9.9,27.75-27.75,28l-2-9.45C604.46,111.65,609.56,106.4,608.81,97.85Zm-111.45-24h87v21.3H552.41v83.7h-23.1V95.15H497.36Zm-41.85,0h23.1v105h-23.1ZM472.76,253.1h21.3l45,105.75H514.91l-9.6-23.55h-44.4l-9.6,23.55H427.76ZM398.21,486.35c0-29.85,23.55-54.3,55.95-54.3s55.65,24.15,55.65,54v.3c0,29.85-23.55,54.3-55.95,54.3s-55.65-24.15-55.65-54Zm-144,52.5-9.6-23.55h-44.4l-9.6,23.55H167.07l45-105.75h21.3l45,105.75ZM383.81,510c0,19.2-15.6,28.8-39.3,28.8H294.56v-105h48.75c12,0,21.45,3.3,27.45,9.3A24.08,24.08,0,0,1,378,461v.3c0,11.85-6.3,18.45-13.8,22.65,12.15,4.65,19.65,11.7,19.65,25.8Zm70.5,167v41.85h-23.1v-41.4l-40.35-63.6h27l25,42.15,25.5-42.15h26.25ZM607,666.35c0,29.85-23.55,54.3-55.95,54.3s-55.65-24.15-55.65-54v-.3c0-29.85,23.55-54.3,55.95-54.3S607,636.2,607,666Zm13.2-173.25c0,31.8-17.85,47.4-46,47.4s-45.45-15.75-45.45-46.65v-60h23.1v59.4c0,17.1,8.55,25.95,22.65,25.95s22.65-8.55,22.65-25.2V433.85h23.1Zm97.2,180c0,31.8-17.85,47.4-46,47.4s-45.45-15.75-45.45-46.65v-60H649v59.4c0,17.1,8.55,25.95,22.65,25.95s22.65-8.55,22.65-25.2V613.85h23.1Zm5.85-217.95H691.31v83.7h-23.1v-83.7H636.26v-21.3h87Zm.3-96.3H648.11v-105h23.1v84h52.35Z"/>
    <path class="a" d="M454.16,519.35c18.6,0,31.5-14.7,31.5-32.7v-.3c0-18-13.2-33-31.8-33s-31.5,14.7-31.5,32.7v.3C422.36,504.35,435.56,519.35,454.16,519.35Z"/>
    <polygon class="a" points="208.46 494.9 236.36 494.9 222.41 460.85 208.46 494.9"/>
  </g>
</svg>